<svg width="181" height="181" viewBox="0 0 181 181" fill="none" xmlns="http://www.w3.org/2000/svg">
<circle cx="90.5" cy="90.5" r="90.5" fill="url(#paint0_linear_326_68)"/>
<path fill-rule="evenodd" clip-rule="evenodd" d="M89.4264 91.5075C89.3257 91.6604 89.2289 91.8172 89.1362 91.9777L55.3871 150.433C52.8311 154.86 54.3479 160.521 58.7751 163.077C63.2022 165.633 68.8631 164.116 71.4191 159.689L91.2745 125.299C94.0032 129.32 97.6671 132.808 102.168 135.407C117.952 144.52 138.057 139.247 147.073 123.629C156.09 108.012 150.604 87.9646 134.821 78.8519C119.037 69.7392 98.9323 75.0122 89.9157 90.6295C89.7475 90.9206 89.5845 91.2134 89.4264 91.5075ZM106.015 99.7705C110.01 92.8506 118.918 90.5142 125.912 94.552C132.905 98.5897 135.336 107.473 131.341 114.392C127.346 121.312 118.437 123.649 111.444 119.611C104.45 115.573 102.02 106.69 106.015 99.7705Z" fill="white"/>
<path fill-rule="evenodd" clip-rule="evenodd" d="M90.5087 89.5547C90.6331 89.3709 90.7518 89.1814 90.8645 88.9863L124.614 30.531C127.17 26.1039 125.653 20.443 121.226 17.887C116.799 15.331 111.138 16.8478 108.582 21.2749L88.5561 55.9601C85.8274 51.9388 82.1635 48.4505 77.662 45.8515C61.8783 36.7388 41.7737 42.0118 32.7571 57.629C23.7404 73.2463 29.2262 93.2939 45.0099 102.407C60.7936 111.519 80.8982 106.246 89.9148 90.6291C90.1203 90.2732 90.3183 89.915 90.5087 89.5547ZM73.8158 81.4881C69.8206 88.4079 60.9125 90.7443 53.9189 86.7066C46.9253 82.6689 44.4946 73.786 48.4898 66.8661C52.485 59.9463 61.3931 57.6099 68.3867 61.6476C75.3803 65.6854 77.811 74.5682 73.8158 81.4881Z" fill="white"/>
<defs>
<linearGradient id="paint0_linear_326_68" x1="90.5" y1="0" x2="90.5" y2="181" gradientUnits="userSpaceOnUse">
<stop stop-color="#223474"/>
<stop offset="1" stop-color="#481333"/>
</linearGradient>
</defs>
</svg>
