<svg width="1028" height="884" viewBox="0 0 1028 884" fill="none" xmlns="http://www.w3.org/2000/svg">
<ellipse rx="554.699" ry="389.528" transform="matrix(0.848206 -0.529666 0.530448 0.847717 514 442)" fill="black"/>
<line y1="-0.5" x2="96.2358" y2="-0.5" transform="matrix(0.787812 0.615916 -0.616701 0.787198 293.374 289.78)" stroke="#BAADB0"/>
<line y1="-0.5" x2="94.8975" y2="-0.5" transform="matrix(0.937865 0.347001 -0.347628 0.937633 270.299 322.709)" stroke="#BAADB0"/>
<line y1="-0.5" x2="76.9514" y2="-0.5" transform="matrix(0.985241 0.171171 -0.171512 0.985182 267.003 355.639)" stroke="#BAADB0"/>
<path fill-rule="evenodd" clip-rule="evenodd" d="M911.31 578.011L799.235 167.74C764.149 66.3258 677.271 30.4385 580.029 64.0119C473.929 100.644 442.951 189.901 419.967 256.125C409.746 285.574 401.106 310.468 388.144 324.155C367.547 345.906 327.187 368.764 286.272 391.936C220.015 429.461 152.302 467.81 164.691 503.621C180.439 549.141 232.324 529.685 333.151 491.876C360.629 481.572 391.742 469.905 426.749 457.818L403.846 861.852C403.846 861.852 543.94 855.266 693.924 766.356C843.907 677.447 911.31 578.011 911.31 578.011ZM469.773 420.596L624.7 486.455L625.092 485.535L470.165 419.676L469.773 420.596ZM667.553 400.838L492.847 387.666L492.922 386.669L667.628 399.841L667.553 400.838ZM479.662 404.131L647.775 440.354L647.986 439.376L479.873 403.154L479.662 404.131ZM486.254 269.12C486.254 280.032 477.399 288.878 466.476 288.878C455.553 288.878 446.698 280.032 446.698 269.12C446.698 258.208 455.553 249.362 466.476 249.362C477.399 249.362 486.254 258.208 486.254 269.12ZM568.663 308.636C579.586 308.636 588.441 299.79 588.441 288.878C588.441 277.966 579.586 269.12 568.663 269.12C557.74 269.12 548.885 277.966 548.885 288.878C548.885 299.79 557.74 308.636 568.663 308.636Z" fill="#BAADB0"/>
<path d="M857.978 564.811C872.538 542.859 890.676 526.138 908.325 516.902C925.898 507.706 943.483 505.714 956.388 514.255C971.561 524.298 975.846 545.926 971.2 570.28C970.915 571.774 970.199 573.012 969.001 573.829C967.87 574.599 966.552 574.827 965.354 574.85C963.208 574.89 960.605 574.258 958.28 573.694C958.097 573.65 957.917 573.606 957.738 573.563C955.086 572.923 952.739 572.407 950.859 572.498C949.955 572.541 949.303 572.722 948.836 572.995C948.405 573.246 948.014 573.641 947.714 574.357C947.374 575.168 947.14 576.378 947.054 578.027C946.969 579.652 947.034 581.568 947.204 583.715C947.484 587.258 948.038 591.267 948.613 595.435C948.738 596.34 948.864 597.252 948.989 598.169C949.679 603.253 950.319 608.456 950.397 612.976C950.474 617.376 950.041 621.646 948.152 624.495C946.097 627.594 942.008 629.259 937.715 630.324C933.292 631.422 927.988 632.03 922.81 632.557C922.027 632.637 921.247 632.715 920.473 632.792C916.056 633.233 911.815 633.656 908.176 634.307C906.047 634.688 904.2 635.135 902.702 635.679C901.182 636.232 900.173 636.831 899.577 637.428C898.861 638.147 898.587 638.796 898.508 639.387C898.424 640.013 898.535 640.768 898.911 641.697C899.694 643.635 901.368 645.746 903.308 648.06C903.476 648.261 903.648 648.465 903.821 648.671C905.495 650.658 907.339 652.848 908.281 654.87C908.818 656.025 909.212 657.421 908.89 658.876C908.55 660.41 907.518 661.566 906.114 662.393C896.702 667.935 886.226 673.357 876.404 676.3C866.67 679.218 857.019 679.868 849.742 675.051C836.837 666.51 831.817 649.556 833.444 629.806C835.077 609.968 843.418 586.764 857.978 564.811Z" fill="#C1827A" stroke="black" stroke-width="4.25"/>
<path d="M620.069 742.729C596.682 752.99 577.937 768.057 566.575 784.227C555.24 800.359 551.056 817.927 557.618 832.852C565.337 850.408 585.768 859.494 610.253 859.949C611.795 859.978 613.174 859.488 614.18 858.377C615.106 857.354 615.495 856.04 615.67 854.846C615.989 852.677 615.719 849.898 615.475 847.382C615.456 847.187 615.437 846.994 615.419 846.802C615.145 843.945 614.947 841.391 615.289 839.45C615.455 838.509 615.722 837.883 616.035 837.48C616.312 837.125 616.699 836.841 617.379 836.699C618.176 836.532 619.363 836.546 620.983 836.812C622.573 837.072 624.432 837.548 626.506 838.184C629.925 839.232 633.765 840.66 637.757 842.145C638.624 842.468 639.497 842.793 640.376 843.117C645.245 844.916 650.24 846.69 654.644 847.741C656.85 848.268 658.974 848.629 660.905 848.708C662.819 848.787 664.692 848.595 666.303 847.889C668.05 847.122 669.437 845.73 670.559 844.111C671.686 842.484 672.636 840.498 673.465 838.342C675.119 834.038 676.412 828.725 677.609 823.522C677.79 822.735 677.969 821.951 678.147 821.172C679.16 816.731 680.134 812.462 681.251 808.862C681.905 806.754 682.585 804.953 683.313 803.533C684.055 802.086 684.762 801.205 685.384 800.75C686.134 800.202 686.746 800.077 687.286 800.119C687.883 800.165 688.607 800.435 689.486 801.035C691.304 802.275 693.166 804.478 695.168 806.964C695.341 807.18 695.517 807.4 695.694 807.621C697.417 809.771 699.289 812.107 701.112 813.488C702.136 814.264 703.446 814.981 704.951 814.962C706.584 814.941 707.912 814.072 708.924 812.783C715.58 804.3 722.259 794.697 726.43 785.238C730.578 775.832 732.434 766.138 728.753 757.766C722.191 742.841 706.411 734.032 686.85 731.456C667.244 728.873 643.456 732.468 620.069 742.729Z" fill="#C1827A" stroke="black" stroke-width="4.25"/>
</svg>
